# xmcd
#
# Track frame offsets:
#	150
#	15720
#	31222
#	43447
#	58639
#	74700
#	90049
#	105043
#	123005
#	140169
#	153000
#	167293
#
# Disc length: 2409 seconds
#
# Revision: 2
# Processed by: cddbd v1.5.1PL2 Copyright (c) Steve Scherf et al.
# Submitted via: audiograbber 1.83.01
#
DISCID=8c09670c
DTITLE=Tony Christi - It's good to be me
DYEAR=1900
DGENRE=
TTITLE0=If it Feels Good Do it
TTITLE1=Sittin On The Dock Of The Baby
TTITLE2=Love And Rainy Weather
TTITLE3=Tie A Yellow Ribbon
TTITLE4=The Janes The Jeans And The Might Have Beens
TTITLE5=Its Good To Be Me
TTITLE6=Im Gonna Make You Love Me
TTITLE7=You And I
TTITLE8=If You Stay Too Long in Oklahoma
TTITLE9=Baby Im A Want You
TTITLE10=A Year And A Wife And A Kid Ago
TTITLE11=Heres That Tainy Day
EXTD=
EXTT0=
EXTT1=
EXTT2=
EXTT3=
EXTT4=
EXTT5=
EXTT6=
EXTT7=
EXTT8=
EXTT9=
EXTT10=
EXTT11=
PLAYORDER=
